<svg xmlns="http://www.w3.org/2000/svg" viewBox="0 0 96 96" role="img" aria-labelledby="title">
  <title id="title">Google</title>
  <path fill="#4285f4" d="M88 49.1c0-2.9-.3-5.7-.8-8.4H49v15.9h21.9c-.9 5.1-3.8 9.4-8.1 12.3v10h13.1C83.6 71.8 88 61.4 88 49.1Z"/>
  <path fill="#34a853" d="M49 88c11 0 20.2-3.6 26.9-9.8l-13.1-10c-3.6 2.4-8.2 3.8-13.8 3.8-10.6 0-19.6-7.2-22.8-16.8H12.7v10.3C19.4 78.8 33.1 88 49 88Z"/>
  <path fill="#fbbc05" d="M26.2 55.2c-.8-2.4-1.3-5-1.3-7.7s.5-5.3 1.3-7.7V29.5H12.7A40 40 0 0 0 8 47.5c0 6.5 1.6 12.6 4.7 18l13.5-10.3Z"/>
  <path fill="#ea4335" d="M49 23c6 0 11.4 2.1 15.6 6.1l11.6-11.6C69.1 10.9 60 7 49 7 33.1 7 19.4 16.2 12.7 29.5l13.5 10.3C29.4 30.2 38.4 23 49 23Z"/>
</svg>
