<svg xmlns="http://www.w3.org/2000/svg" viewBox="0 0 1000 650" role="img" aria-labelledby="title">
  <title id="title">People collaborating and building trust</title>
  <defs>
    <linearGradient id="bg" x1="0" y1="0" x2="1" y2="1">
      <stop offset="0" stop-color="#082f49"/>
      <stop offset=".55" stop-color="#0f172a"/>
      <stop offset="1" stop-color="#164e63"/>
    </linearGradient>
    <linearGradient id="desk" x1="0" y1="0" x2="1" y2="0">
      <stop offset="0" stop-color="#38bdf8"/>
      <stop offset="1" stop-color="#22c55e"/>
    </linearGradient>
  </defs>
  <rect width="1000" height="650" fill="url(#bg)"/>
  <circle cx="820" cy="120" r="110" fill="#38bdf8" opacity=".14"/>
  <circle cx="150" cy="520" r="130" fill="#22c55e" opacity=".13"/>
  <rect x="150" y="415" width="700" height="62" rx="31" fill="url(#desk)"/>
  <path fill="#e0f2fe" d="M258 413c17-81 59-127 115-127s98 46 115 127H258Z"/>
  <path fill="#bfdbfe" d="M520 413c17-81 59-127 115-127s98 46 115 127H520Z"/>
  <circle cx="373" cy="230" r="68" fill="#f1c0a9"/>
  <circle cx="635" cy="230" r="68" fill="#f5d0b8"/>
  <path fill="#111827" d="M306 229c7-50 46-76 89-61 27 9 44 29 43 62-34-19-72-22-132-1Z"/>
  <path fill="#92400e" d="M568 232c-3-50 28-83 73-77 39 5 63 36 61 79-34-28-73-31-134-2Z"/>
  <path fill="#bae6fd" d="m428 365 84-34c20-8 42 1 51 21 8 18 0 39-18 49l-97 54c-23 13-52 5-66-18l-31-52 38-21 28 42c4 6 12 8 18 4l73-40-56 18-24-23Z"/>
  <path fill="#bbf7d0" d="m572 365-84-34c-20-8-42 1-51 21-8 18 0 39 18 49l97 54c23 13 52 5 66-18l31-52-38-21-28 42c-4 6-12 8-18 4l-73-40 56 18 24-23Z"/>
  <g fill="#fff" font-family="Arial, Helvetica, sans-serif" font-weight="800">
    <text x="500" y="560" text-anchor="middle" font-size="42">Inclusive partnerships</text>
    <text x="500" y="598" text-anchor="middle" font-size="22" opacity=".74">accessible work, shared opportunity</text>
  </g>
</svg>
