<?xml version="1.0" standalone="no"?>
<!DOCTYPE svg PUBLIC "-//W3C//DTD SVG 20010904//EN"
 "http://www.w3.org/TR/2001/REC-SVG-20010904/DTD/svg10.dtd">
<svg version="1.0" xmlns="http://www.w3.org/2000/svg"
 width="808.000000pt" height="524.000000pt" viewBox="0 0 808.000000 524.000000"
 preserveAspectRatio="xMidYMid meet">

<g transform="translate(0.000000,524.000000) scale(0.100000,-0.100000)"
fill="#000000" stroke="none">
<path d="M0 2620 l0 -2620 4040 0 4040 0 0 2620 0 2620 -4040 0 -4040 0 0
-2620z m2513 619 c37 -46 13 -180 -51 -273 -21 -30 -42 -45 -86 -63 -69 -26
-116 -67 -116 -99 0 -16 -5 -21 -17 -19 -19 3 -19 25 0 37 7 4 8 8 2 8 -5 0
-3 5 5 10 8 5 10 10 4 10 -6 0 -11 17 -12 38 -4 161 -3 185 10 193 12 8 9 10
-8 8 -11 -1 -22 24 -17 38 3 7 11 13 19 13 8 0 14 6 14 13 0 20 38 52 105 87
68 36 118 36 148 -1z m-598 -75 c46 -21 92 -71 136 -144 33 -53 36 -65 28 -93
-21 -74 -8 -142 33 -179 15 -13 18 -24 13 -52 -4 -19 -13 -43 -19 -52 -12 -16
-18 -15 -82 8 -38 14 -82 30 -97 34 -16 5 -37 24 -49 44 -12 19 -15 29 -8 23
24 -22 30 -14 12 16 -16 28 -15 31 2 50 12 13 14 21 7 21 -9 0 -11 22 -9 78 1
42 2 117 0 166 -2 88 -2 88 -27 84 -13 -3 -22 -1 -19 3 8 14 43 11 79 -7z
m3006 -16 c114 -53 174 -150 173 -278 0 -88 -22 -146 -79 -208 -87 -97 -240
-126 -357 -69 -111 54 -171 151 -172 277 0 140 74 247 204 294 63 23 162 16
231 -16z m-1321 -155 c35 -93 71 -188 80 -213 61 -159 78 -209 73 -214 -4 -3
-39 -6 -78 -6 l-72 0 -21 50 -21 50 -103 0 -104 0 -21 -50 -21 -50 -71 0 c-38
0 -72 4 -75 8 -3 5 43 129 101 278 58 148 109 279 114 292 8 20 15 22 82 22
l73 0 64 -167z m402 97 c58 -195 90 -292 94 -288 2 3 28 83 58 179 l53 174 76
3 c58 2 77 0 76 -10 0 -7 -44 -141 -97 -298 l-98 -285 -73 0 -74 0 -98 292
c-53 160 -94 294 -91 298 3 3 39 4 80 3 l74 -3 20 -65z m1611 59 c43 -11 101
-59 121 -98 47 -90 18 -215 -60 -259 -18 -10 -17 -15 33 -115 28 -58 49 -108
46 -111 -4 -3 -41 -6 -83 -6 l-76 0 -43 95 -44 95 -38 0 -38 0 -3 -92 -3 -93
-72 -3 -73 -3 0 301 0 300 148 0 c81 0 164 -5 185 -11z m709 -69 c116 -300
188 -501 183 -510 -3 -5 -38 -10 -76 -10 l-71 0 -21 50 -21 51 -104 -3 -104
-3 -18 -45 -18 -45 -71 -3 c-51 -2 -73 1 -76 10 -3 7 40 130 96 273 55 143
105 273 111 288 10 27 11 28 85 25 l76 -3 29 -75z m-3650 -194 c76 -20 124
-42 168 -76 121 -96 39 -200 -164 -208 l-91 -3 -42 39 -43 38 0 82 c0 48 -4
82 -10 82 -5 0 -10 -18 -10 -40 0 -22 -4 -40 -9 -40 -6 0 -9 12 -7 28 1 15 -1
35 -6 45 -6 12 -5 17 7 17 8 0 15 6 15 14 0 8 8 17 18 20 9 2 -1 2 -22 -1 -28
-4 -37 -2 -32 6 10 16 163 14 228 -3z m-192 -186 c0 -5 -14 -7 -32 -3 -46 8
-48 13 -5 13 21 0 37 -4 37 -10z m-555 -67 c50 -43 106 -61 141 -45 31 15 54
4 85 -40 l23 -31 -34 -26 c-19 -14 -55 -47 -81 -73 -46 -47 -47 -48 -110 -48
-102 1 -209 30 -209 57 0 10 7 12 23 8 12 -4 17 -3 10 2 -7 5 -12 48 -14 111
-2 56 -7 102 -11 102 -18 0 -6 19 15 23 55 11 122 -6 162 -40z m585 -35 c47
-11 56 -17 87 -64 96 -144 119 -349 47 -421 -31 -31 -69 -26 -126 14 -49 33
-106 117 -84 121 18 4 22 57 6 67 -14 8 -13 45 1 45 8 0 10 37 6 125 -3 69 -2
125 3 125 5 0 32 -5 60 -12z m-195 -115 c3 -27 13 -74 21 -105 14 -55 13 -60
-7 -100 -44 -87 -135 -185 -211 -228 l-38 -21 0 21 c0 12 -4 18 -10 15 -6 -4
-9 -14 -8 -22 2 -9 -3 -18 -9 -20 -15 -5 -15 5 -4 66 6 27 5 55 -1 73 -12 34
-5 46 17 28 10 -8 15 -9 15 -1 0 6 -4 11 -10 11 -5 0 -10 18 -10 40 0 35 -3
40 -22 41 -21 1 -20 2 5 11 15 5 24 14 21 19 -13 22 6 55 40 67 43 16 86 65
86 98 0 26 43 52 91 53 24 1 27 -3 34 -46z m950 -209 c11 -12 13 -20 6 -27 -8
-8 -15 -7 -23 1 -17 17 -38 15 -38 -3 0 -8 4 -15 9 -15 19 0 71 -52 71 -71 0
-32 -38 -62 -68 -54 -38 9 -59 32 -44 47 8 8 15 8 26 -2 16 -12 46 -8 46 8 0
5 -18 18 -40 31 -32 18 -40 28 -40 51 0 46 61 68 95 34z m153 -76 c-2 -54 -7
-93 -13 -93 -6 0 -11 39 -13 93 -2 78 0 92 13 92 13 0 15 -14 13 -92z m171 55
l20 -38 1 38 c0 30 4 37 20 37 18 0 20 -7 20 -89 0 -79 -2 -89 -19 -94 -15 -4
-23 5 -38 42 l-18 46 -5 -45 c-3 -30 -10 -45 -19 -45 -12 0 -15 18 -17 85 -1
47 0 88 3 93 11 17 34 4 52 -30z m288 7 c15 -30 2 -38 -32 -20 -35 19 -55 6
-55 -34 0 -19 3 -41 6 -50 9 -23 41 -20 49 4 6 20 29 27 39 12 9 -16 -19 -56
-47 -65 -21 -7 -34 -5 -52 7 -23 15 -25 23 -25 84 0 80 10 94 65 90 31 -2 42
-9 52 -28z m213 10 c0 -17 -6 -20 -27 -18 -19 2 -28 -2 -31 -14 -3 -14 3 -18
22 -18 19 0 26 -5 26 -20 0 -15 -7 -20 -25 -20 -18 0 -25 -5 -25 -20 0 -16 7
-20 30 -20 23 0 30 -4 30 -20 0 -17 -7 -20 -50 -20 l-50 0 0 95 0 95 50 0 c44
0 50 -3 50 -20z m379 -12 c13 -23 13 -30 1 -54 -8 -14 -25 -31 -37 -37 -32
-14 -29 -27 7 -27 23 0 30 -5 30 -19 0 -17 -7 -20 -55 -20 l-55 0 0 34 c0 27
8 39 40 65 34 27 39 35 28 47 -10 13 -14 12 -28 -6 -12 -17 -18 -19 -28 -9
-29 29 -2 60 48 56 25 -2 38 -10 49 -30z m231 12 c31 -31 28 -113 -5 -145 -13
-14 -33 -25 -45 -25 -11 0 -32 11 -45 25 -20 19 -25 34 -25 75 0 59 24 90 70
90 17 0 39 -9 50 -20z m224 7 c29 -21 18 -77 -21 -102 -42 -26 -41 -35 3 -35
28 0 35 -3 32 -17 -4 -25 -105 -32 -114 -9 -11 29 6 64 41 86 38 24 46 50 15
50 -11 0 -20 -7 -20 -15 0 -13 -4 -14 -20 -5 -24 13 -25 23 -4 44 19 19 64 21
88 3z m237 -3 c17 -21 -4 -35 -43 -27 -17 3 -28 1 -28 -6 0 -6 11 -11 24 -11
57 0 79 -84 31 -116 -30 -19 -81 -11 -95 16 -15 29 -12 113 6 138 19 27 84 31
105 6z"/>
<path d="M4731 3018 c-60 -31 -83 -65 -89 -131 -6 -70 17 -120 71 -155 75 -50
171 -22 211 61 66 141 -64 292 -193 225z"/>
<path d="M3422 2870 l-31 -90 64 0 c36 0 65 4 65 8 0 13 -52 156 -59 165 -4 4
-22 -33 -39 -83z"/>
<path d="M5437 3023 c-4 -3 -7 -35 -7 -69 0 -60 1 -64 26 -70 37 -9 115 3 136
23 41 37 10 104 -54 117 -40 8 -93 8 -101 -1z"/>
<path d="M6205 2949 c-10 -29 -55 -163 -55 -166 0 -2 29 -3 64 -3 l65 0 -30
87 c-32 94 -36 103 -44 82z"/>
<path d="M1760 2620 c0 -6 7 -10 15 -10 8 0 15 2 15 4 0 2 -7 6 -15 10 -8 3
-15 1 -15 -4z"/>
<path d="M1768 2413 c7 -3 16 -2 19 1 4 3 -2 6 -13 5 -11 0 -14 -3 -6 -6z"/>
<path d="M3218 2273 c7 -3 16 -2 19 1 4 3 -2 6 -13 5 -11 0 -14 -3 -6 -6z"/>
<path d="M4627 2244 c-13 -13 -7 -81 8 -94 25 -21 47 6 43 54 -2 32 -7 42 -23
44 -12 2 -24 0 -28 -4z"/>
<path d="M5086 2181 c-10 -16 6 -42 23 -39 9 2 17 13 19 26 3 16 -2 22 -17 22
-11 0 -22 -4 -25 -9z"/>
</g>
</svg>
