<?xml version="1.0" encoding="utf-8"?>
<!-- Generator: Adobe Illustrator 24.2.0, SVG Export Plug-In . SVG Version: 6.00 Build 0)  -->
<svg version="1.1" id="Layer_1" xmlns="http://www.w3.org/2000/svg" xmlns:xlink="http://www.w3.org/1999/xlink" x="0px" y="0px"
	 viewBox="0 0 500 500" enable-background="new 0 0 500 500" xml:space="preserve">
<g>
	<g>
		<path fill="#D0AD55" d="M286.81,90.33c10.95,0.69,22.35,4.67,29.23,13.67c4.02,4.3,5.04,10.52,9.31,14.61
			c2.81,2.98,5.02,6.45,7.67,9.56c-1.01-4.37-2.71-8.55-3.37-13.01c-1.58-7.86-1.14-15.93-0.57-23.88
			c5.28,5.71,9.27,12.7,11.3,20.22c1.95,7.88,1.2,16.53-2.69,23.72c4.25,7.73,8.23,15.64,10.91,24.08
			c0.45-4.78-0.05-9.62,0.73-14.38c0.78-7.37,3.21-14.41,5.87-21.28c7.51,13.76,7.53,32.81-4,44.48c2.24,8.46,3.54,17.18,3.66,25.94
			c1.77-4.14,2.6-8.62,4.51-12.71c3.1-6.91,7.07-13.58,12.34-19.06c0.85,10.04,0.47,20.8-4.8,29.7c-2.51,4.34-6.17,7.91-10.39,10.59
			c-2.08,0.99-1.48,3.59-1.78,5.45c-0.29,7.1-1.49,14.14-3.26,21.03c2.11-2.21,3.4-4.99,5.24-7.39
			c5.23-6.96,11.88-12.84,19.36-17.27c-2.16,10.64-5.89,21.93-14.94,28.72c-3.54,2.98-8.05,4.13-12.25,5.79
			c-2.91,8-6.27,15.86-10.68,23.16c3.21-2.39,6.08-5.23,9.53-7.31c6.25-4.1,13.34-6.69,20.51-8.69c-3.46,7.69-8.66,14.85-15.71,19.6
			c-5.66,3.78-12.67,5.35-19.41,4.55c-0.59,0.78-1.18,1.57-1.75,2.36c-1.34-0.27-2.7-0.44-4.04-0.58c0.95-1.36,1.91-2.7,2.87-4.05
			c-5.06-11.89-6.27-25.12-3.93-37.8c4.87,4.81,8.62,10.95,9.65,17.79c0.77,4.04,0.02,8.13-0.5,12.14
			c4.23-7.15,7.59-14.79,10.42-22.6c-7.35-9.12-13.46-20.27-13.52-32.23c-0.49-0.17-1.47-0.49-1.96-0.65
			c-2.25,15.83-6.47,31.41-12.44,46.25c-0.97,2.94-3.63,5.98-1.97,9.16c1.73,4.19,2.27,8.72,2.32,13.24
			c-3.46,0.71-6.92,1.4-10.38,2.1c0.34-1.22,0.14-2.26-0.62-3.13c-1.54,0.45-1.79,2.36-2.07,3.72c-4.55,0.84-9.1,1.68-13.67,2.44
			c22.62-29.4,31.65-66.98,33.21-103.47c0.79-11.21,0.32-22.45-0.16-33.66c-26.75-13.66-53.51-27.29-80.4-40.66
			c-27.05,13.74-54.34,27.01-81.51,40.53c-1.74,32.76,0.48,66.31,11.85,97.34c5.29,14.4,12.55,28.16,22.18,40.15
			c-4.83-0.95-9.7-1.7-14.53-2.65c-0.22-1.92-1.21-3.68-2.8-4.78c0.07,1.47,0.13,3.02,0.83,4.36c-3.72-0.74-7.43-1.5-11.13-2.28
			c-0.22-5.62,1.03-11.15,3.33-16.26c-7.99-17.2-12.86-35.68-15.92-54.34c-1.75,4.6-1.88,9.61-3.53,14.24
			c-2.32,7.72-6.83,14.49-11.58,20.91c3.08,7.4,5.88,15.02,10.36,21.74c-2.59-10.67,1.36-21.93,9.16-29.44
			c2.47,12.65,1.24,25.96-3.92,37.8c1.04,1.39,2.08,2.77,3.12,4.16c-1.31,0.07-2.61,0.2-3.9,0.38c-0.73-0.74-1.46-1.48-2.19-2.21
			c-6.6,0.73-13.43-0.74-19-4.38c-7.31-4.69-12.39-12.11-16.13-19.8c7.62,2.06,15.12,4.9,21.67,9.38c2.81,1.76,5.06,4.29,8,5.87
			c-4.13-7.18-7.55-14.76-10.17-22.63c-6.54-1.49-12.71-4.85-17.01-10.08c-5.82-6.8-8.54-15.63-10.05-24.3
			c6.62,4.36,12.94,9.36,17.86,15.64c2.5,2.84,4.05,6.38,6.64,9.15c-2.26-8.25-3.34-16.79-3.55-25.33
			c-5.91-3.73-11.09-8.85-13.78-15.4c-3.38-7.88-3.69-16.69-2.93-25.11c0.2-0.11,0.6-0.33,0.8-0.43
			c6.1,7.64,11.43,16.14,14.06,25.64c0.53,1.65,0.58,3.61,2.03,4.79c0.04-8.51,1.52-16.92,3.56-25.16
			c-5.57-5.98-9.08-13.92-9.15-22.14c-0.11-7.73,1.49-15.67,5.16-22.49c4.7,11.31,7.21,23.53,6.34,35.8
			c3.37-7.96,6.31-16.23,11.19-23.46c-2.39-5.58-4.18-11.57-3.7-17.72c0.64-10.09,5.7-19.44,12.33-26.88
			c1.25,12.46,0.41,25.22-4.18,36.97c2.6-2.52,4.41-5.69,6.84-8.35c1.9-2.13,3.95-4.22,5.03-6.92c4.05-9.6,12.3-17.6,22.47-20.35
			c4.01-0.98,8.04-2.11,12.2-2.11c-7.63,10.1-17.29,19-28.97,24.18c-7.36,2.36-11.28,9.58-15.6,15.43
			c3.95-2.69,8.09-5.39,12.94-6.03c3.64-1.12,7.66,0.99,11.08-0.99c20.64-10.36,41.4-20.5,62.04-30.85c1.3-0.64,2.82-1.5,4.16-0.42
			c20.57,10.5,41.21,20.88,61.8,31.34c2.76,1.53,5.98,0.18,8.95,0.71c5.33,0.47,10.04,3.17,14.32,6.21
			c-2.51-4.12-5.77-7.73-8.85-11.42c-1.62-2-4.14-2.76-6.37-3.82C304.29,109.54,294.21,100.76,286.81,90.33z M151.42,137.25
			c-4.42,7.2-7.65,15.06-10.53,22.98c3.72-3.86,7.25-8.1,12.41-10.11c0.18-4.48,0.23-8.97,0.5-13.44
			C153.2,136.82,152.01,137.11,151.42,137.25z M333.48,136.58c0.11,4.49,0.27,8.97,0.46,13.46c4.96,2.19,8.78,6.04,12.16,10.16
			c-2.42-8.05-5.97-15.85-10.37-23.01C335.17,137.03,334.04,136.73,333.48,136.58z M138.61,168.83c-1.89,8.24-3.6,16.71-3.23,25.2
			c2.12-6.12,5.84-11.86,11.49-15.26c2.09-1.5,4.93-1.87,6.76-3.64c0.05-4.09-0.35-8.18-0.3-12.27
			C148.7,165.47,143.71,167.36,138.61,168.83z M334.05,163c-0.2,4.12-0.3,8.26-0.63,12.38c4.97,2.08,9.98,4.63,13.31,9.03
			c2.55,2.81,3.51,6.59,5.67,9.64c-0.74-8.44-1.7-16.87-3.62-25.13C343.7,167.38,338.72,165.52,334.05,163z M135.23,203.32
			c0.22,8.35,1.36,16.7,3.57,24.77c0.81-3.84,1.01-7.88,2.86-11.41c3-6.16,8.17-11.65,14.74-13.93c-0.56-6.32-1.75-12.59-2.02-18.94
			C149.48,191.61,143.03,198.38,135.23,203.32z M332.89,183.94c-0.52,6-0.65,12.15-2.37,17.97c3.16,2.34,6.92,3.92,9.58,6.94
			c5.35,5.04,7.58,12.29,8.51,19.38c1.9-8.19,3.21-16.54,3.39-24.95C344.21,198.41,337.86,191.61,332.89,183.94z"/>
	</g>
	<path fill="#D0AD55" d="M171.35,147.5c24.3-12.13,48.72-24.03,72.96-36.27c23.56,11.91,47.09,23.87,70.66,35.77
		c1.38,0.83,3.55,1.43,3.2,3.48c1.34,25.97-0.21,52.36-7.38,77.46c-4.89,17.02-12.57,33.36-23.53,47.32
		c-1.53,1.84-2.87,4.16-5.37,4.79c1.89-3.34,4.76-5.97,6.88-9.16c16.3-22.45,24.2-49.94,27.01-77.27c1.49-14.59,1.87-29.4,0.73-44
		c-23.01-12.15-46.49-23.49-69.59-35.5c-1.09-0.45-2.34-1.51-3.53-0.73c-23.6,11.75-47.22,23.45-70.85,35.14
		c-1.05,0.48-2.2,1.23-2.07,2.56c-1.57,33.35,1.6,67.89,15.95,98.46c3.94,8.35,8.75,16.3,14.42,23.6c1.78,2.33,3.98,4.36,5.31,7.01
		c-1.2-0.47-2.36-1.07-3.14-2.11c-17.55-20.53-27.34-46.7-31.47-73.14c-3.01-18.14-3.29-36.61-2.47-54.93
		C168.88,148.59,170.44,148.1,171.35,147.5z"/>
	<path fill="#D0AD55" d="M243.5,154.72c3.85,3.58,7.5,7.4,10.96,11.36c-3.42-0.16-6.85-0.25-10.27-0.05
		c-3.84,3.91-7.4,8.13-11.48,11.78c-3.79,0.93-7.83,0.12-11.71,0.38C228.45,170.32,236.17,162.7,243.5,154.72z"/>
	<path fill="#D0AD55" d="M208.57,169.69c5.13-0.01,10.27,0.01,15.4-0.06c-2.09,2.99-5.65,4.92-7.12,8.29
		c-0.29,5.54,0.03,11.1-0.08,16.65c-2.8,2.7-5.21,5.8-8.3,8.19C208.67,191.74,208.5,180.71,208.57,169.69z"/>
	<path fill="#D0AD55" d="M246.6,169.73c10.71,0.08,21.43,0.01,32.14,0.04c-0.04,5.22-0.06,10.44,0.07,15.66
		c-2.87-2.08-4.7-5.44-7.77-7.18c-5.3-0.35-10.62,0.21-15.92-0.14C251.87,175.8,249.36,172.58,246.6,169.73z"/>
	<path fill="#D0AD55" d="M270.34,182.58c7.84,7.59,15.25,15.63,22.87,23.45c-3.77,3.61-7.07,7.69-10.91,11.23
		c-0.05-3.36,0.32-6.74-0.03-10.08c-3.42-4.82-8.26-8.48-11.97-13.09C270.49,190.25,270.39,186.41,270.34,182.58z"/>
	<path fill="#D0AD55" d="M228.42,189.77c4.75-1.07,9.49-2.26,14.32-2.91c-0.24,3.64,0.08,7.28-0.14,10.91
		c-0.88,1.36-3.05,0.93-4.45,1.43c0.02-2.26,0.05-4.52,0.07-6.78c-1.8,0.43-3.58,0.87-5.36,1.33c0.14,6.7-0.01,13.4,0.08,20.1
		c1.68,1.49,3.45,2.88,5.36,4.07c-0.07-3.89-0.16-7.77-0.07-11.65c-0.78,0.11-2.34,0.34-3.12,0.46c-0.06-1.58-0.1-3.16-0.15-4.74
		c2.51-0.55,5.01-1.19,7.49-1.88c0.52,9.05,0.03,18.14,0.26,27.2c-5.01-3.49-9.65-7.48-14.38-11.33
		C228.75,207.25,228.51,198.5,228.42,189.77z"/>
	<g>
		<path fill="#D0AD55" d="M244.71,186.7c4.75,1.06,9.55,1.9,14.3,2.97c-0.2,8.75-0.23,17.5,0.06,26.24
			c-4.74,3.93-9.67,7.61-14.41,11.53C244.77,213.86,244.66,200.28,244.71,186.7z M249.25,217.81c1.87-1.67,5.26-2.78,5.15-5.74
			c-0.06-6.24,0.15-12.49-0.09-18.74c-1.6-0.34-3.19-0.69-4.78-1.04C249,200.78,249.54,209.3,249.25,217.81z"/>
	</g>
	<path fill="#D0AD55" d="M194.05,206.01c3.69-3.66,7.07-7.63,10.99-11.05c-0.01,3.33-0.44,6.7,0.01,10.02
		c3.46,4.52,7.9,8.22,11.72,12.45c-0.03,3.95,0.02,7.91,0.08,11.86C209,221.79,201.81,213.6,194.05,206.01z"/>
	<path fill="#D0AD55" d="M271.04,216.96c2.44-2.8,5.08-5.42,7.78-7.96c-0.19,11.07-0.18,22.14-0.01,33.21
		c-5.11,0.24-10.23,0.06-15.34,0.15c2.16-2.64,4.69-4.95,6.98-7.48c-0.06-4.64-0.01-9.27-0.09-13.91
		C270.49,219.64,270.04,218.05,271.04,216.96z"/>
	<path fill="#D0AD55" d="M208.44,226.25c2.79,2.25,4.94,5.14,7.53,7.6c5.57,0.17,11.23-0.53,16.74,0.28
		c2.8,2.55,5.38,5.36,7.86,8.24c-10.66-0.24-21.33,0.02-31.99-0.15C208.47,236.9,208.58,231.58,208.44,226.25z"/>
	<path fill="#D0AD55" d="M242.92,246.06c4.09-4,7.65-8.61,12.12-12.17c3.77-0.27,7.56-0.01,11.34-0.12
		c-7.69,7.8-15.09,15.9-22.98,23.49c-3.33-3.92-7.16-7.36-10.53-11.23C236.22,246.1,239.57,246.16,242.92,246.06z"/>
	<path fill="#D0AD55" d="M184.12,289.4c3.42,1.21,8.16,0.57,10.31,4.06c1.32,3.58-2.27,6.8-5.67,6.84c1.65-1.69,4.14-3.57,3.21-6.3
		c-0.64-1.17-2.06-3.06-3.54-1.96c-0.91,4.29-1.92,8.61-2.29,12.99c-0.22,1.26,1.31,1.7,2,2.48c-2.22-0.81-4.55-1.29-6.91-1.42
		c0.61-0.35,1.23-0.69,1.85-1.04c1.12-4.59,1.96-9.24,2.76-13.9C185.26,290.56,184.69,289.98,184.12,289.4z"/>
	<path fill="#D0AD55" d="M299.4,293.94c-0.45-3.13,2.93-5.28,5.75-5.15c2.03-0.46,1.77,2.24,2.39,3.42
		c-1.78-2.38-6.11-2.96-6.29,0.89c2.33,3.08,7.74,3.43,8.19,7.94c0.37,4.24-4.64,6.39-8.18,5.17c-0.27-1.38-0.55-2.74-0.83-4.1
		c0.88,0.95,1.74,1.94,2.74,2.79c2.19,1.2,5.36-1.65,3.82-3.81C304.71,298.44,300.08,297.89,299.4,293.94z"/>
	<g>
		<path fill="#D0AD55" d="M290.01,291.66c1.62,0.02,3.23-0.19,4.81-0.49c-1.88,4.86,1.03,10.12,1.29,15.16
			c0.92,0.26,1.86,0.55,2.79,0.81c-3.33,0.34-6.44,1.84-9.77,2.09c-4.37,0.42-5.4-6.42-9.74-5.45c0,1.75,0.34,3.49,0.64,5.22
			c0.69,0.43,1.39,0.87,2.1,1.3c-2.06,0.12-4.13,0.35-6.05,1.15c0.47-0.77,0.92-1.57,1.39-2.34c-0.54-4.28-1.2-8.54-1.74-12.82
			c-0.58-0.59-1.16-1.18-1.74-1.77c3.18-0.11,6.52-1.42,9.64-0.31c3.15,1.98,1.71,5.86-0.12,8.22c2.36,2.29,4.67,4.79,7.65,6.28
			c3.27-0.97,1.89-4.39,1.54-6.8C291.89,298.48,292.02,294.68,290.01,291.66z M278.14,295.07c0.26,2.61,0.45,5.28,1.31,7.79
			c1.39-0.69,3.56-0.97,3.72-2.91C283.84,296.97,281.1,294.26,278.14,295.07z"/>
	</g>
	<g>
		<path fill="#D0AD55" d="M201.25,293.29c4.07-1.3,9.11,0.66,10.98,4.57c1.57,4.1-0.05,9.27-3.95,11.43
			c-4.88,2.95-12.2-0.61-12.67-6.36C194.95,298.9,197.38,294.64,201.25,293.29z M201.2,295.03c-4.45,3.56-3.59,13.17,2.8,14.05
			c4.61,0.33,6.2-5.32,5.74-9C209.76,296.05,204.71,292.37,201.2,295.03z"/>
	</g>
	<path fill="#D0AD55" d="M216.02,295.11c3.42,0.56,8.01-0.56,10.36,2.66c1.74,3.61-1.79,7.32-5.44,7.26
		c1.37-1.5,3.71-2.66,3.45-5.02c-0.12-2.21-2.13-3.56-4.21-3.42c-0.23,4.16-0.77,8.3-0.92,12.47c-0.33,1.51,0.83,2.49,1.82,3.4
		c-1.92-0.51-3.9-0.72-5.87-0.83c2.55-4.5,1.5-9.94,2.47-14.87C217.26,296.35,216.43,295.53,216.02,295.11z"/>
	<path fill="#D0AD55" d="M228.21,295.6c1.82,0.44,3.68,0.62,5.56,0.63c-1.62,4.02-1.17,8.54-0.87,12.76
		c0.89,3.64,6.32,3.94,7.64,0.42c0.72-3.45,0.53-7.05,0.54-10.56c0.27-1.31-1.22-1.77-1.89-2.58c1.86,0.12,3.73,0.17,5.6,0.15
		c-0.58,0.54-1.14,1.08-1.71,1.62c-0.18,3.96,0.33,8.11-1.01,11.9c-2.31,5.29-11.52,4-12.05-1.82
		C229.1,304.02,231.96,298.65,228.21,295.6z"/>
	<g>
		<path fill="#D0AD55" d="M264.69,295.29c0.19,0,0.57-0.01,0.76-0.02c3.33,5.28,4.35,12.33,9.55,16.2c-1.57-0.01-3.14,0.02-4.7,0.07
			c-0.79-1.81-1.57-3.62-2.35-5.42c-1.66,0.18-3.32,0.36-4.98,0.54c-0.55,1.82-1.06,3.69-0.71,5.6c-0.89,0.14-2.69,0.42-3.58,0.56
			C261.96,307.5,262.5,301.07,264.69,295.29z M263.36,305.21c0.99-0.04,2.96-0.13,3.94-0.18c-0.66-1.73-1.33-3.46-2.03-5.16
			C263.99,301.35,263.86,303.39,263.36,305.21z"/>
	</g>
	<path fill="#D0AD55" d="M246.95,296.36c2,0.01,4-0.02,6-0.09c-0.43,0.4-1.28,1.21-1.71,1.61c0.19,4.45,0.18,8.91,0.51,13.36
		c2.3,0.43,4.56-0.07,6.63-1.11c-0.64,4.99-6.82,1.78-10.12,2.95c1.24-4.84,0.17-9.88,0.4-14.81
		C248.09,297.63,247.52,296.99,246.95,296.36z"/>
	<path fill="#D0AD55" d="M297.87,319.84c9.03-1.66,17.93-4.03,27.01-5.36c3.16-0.38,8.46-1.01,8.77,3.52
		c-1.14,2.05-3.4,3.17-5.69,3.34c-6.37,0.58-12.56-1.89-18.93-1.6c-1.7-0.04-2.49,1.73-3.52,2.78l-0.18,0.22
		c0.35-1.21,0.67-2.42,0.99-3.63C303.52,319.49,300.7,319.73,297.87,319.84z"/>
	<path fill="#D0AD55" d="M154.48,320.44c-2.13-1.85-0.26-6.18,2.56-6.07c3.73-0.38,7.45,0.37,11.1,1.06
		c7.02,1.45,14.02,2.98,21.05,4.38c-2.79-0.12-5.56-0.33-8.33-0.6c0.35,1.84,0.61,3.69,0.84,5.55c-0.84-1.23-1.08-3.43-2.84-3.67
		c-5.37-0.51-10.6,1.35-15.94,1.56C160.02,322.78,156.54,322.83,154.48,320.44z"/>
	<path fill="#D0AD55" d="M201.9,332.34c4.52-3.05,8.55-7.31,13.96-8.72c5.63,1.09,11.39,1.21,17.11,1.42
		c13.21,0.54,26.48,0.19,39.62-1.35c4.52,2.42,8.64,5.48,12.69,8.61c-7.48,2.05-15.68,1.92-23.04-0.57
		c-3.23-1.26-6.7-2.63-8.83-5.51c-1.02-0.11-2.03-0.2-3.05-0.27c3.88,6.57,8.36,13.18,15.15,17.05c-1.82,2-3.64,4.01-5.46,6.03
		c-7.21-5.12-11.34-13.23-14.01-21.45c-1.61-0.23-3.21-0.55-4.79-0.89c-2.23,8.63-6.66,17.16-14.18,22.31
		c-1.76-2.04-3.53-4.06-5.33-6.05c6.53-3.54,10.56-9.91,14.71-15.79c-0.51-0.56-1.02-1.1-1.54-1.63
		C226.52,334.11,212.99,335.1,201.9,332.34z"/>
</g>
<g>
	<g>
		<path fill="#173661" d="M162.68,141.12c27.17-13.52,54.46-26.79,81.51-40.53c26.89,13.37,53.65,27,80.4,40.66
			c0.48,11.21,0.95,22.45,0.16,33.66c-1.56,36.49-10.59,74.07-33.21,103.47c4.57-0.76,9.12-1.6,13.67-2.44
			c0.9-0.16,1.8-0.36,2.69-0.59c3.46-0.7,6.92-1.39,10.38-2.1c2.99-0.63,6.01-1.06,9.06-1.25c1.34,0.14,2.7,0.31,4.04,0.58
			c4.25,1.61,2.03,6.81,2.5,10.18c10.48-0.39,21-1.19,31.45,0.05c2.53,0.34,5.16,1.02,6.9,3.04c-7.99,3.87-14.45,10.41-18.72,18.14
			c6.55,7.79,13.28,15.45,19.56,23.44c-2.49-1.55-5.09-3.13-8.14-3.14c-16.7-1.23-33.22,3.06-49.92,2.46
			c-3.52-0.11-7.8-0.63-9.5-4.23c1.03-1.05,1.82-2.82,3.52-2.78c6.37-0.29,12.56,2.18,18.93,1.6c2.29-0.17,4.55-1.29,5.69-3.34
			c-0.31-4.53-5.61-3.9-8.77-3.52c-9.08,1.33-17.98,3.7-27.01,5.36c-8.37,1.61-16.79,3.05-25.28,3.85
			c-13.14,1.54-26.41,1.89-39.62,1.35c-5.72-0.21-11.48-0.33-17.11-1.42c-8.97-0.49-17.85-2.13-26.67-3.81
			c-7.03-1.4-14.03-2.93-21.05-4.38c-3.65-0.69-7.37-1.44-11.1-1.06c-2.82-0.11-4.69,4.22-2.56,6.07c2.06,2.39,5.54,2.34,8.44,2.21
			c5.34-0.21,10.57-2.07,15.94-1.56c1.76,0.24,2,2.44,2.84,3.67c-2.86,2.8-6.92,3.25-10.72,3.38c-15.73,0.14-31.3-3.38-47.04-2.73
			c-3.72-0.04-7.12,1.53-10.22,3.43c6.85-7.73,13.33-15.78,20.01-23.66c-4.32-7.77-10.88-14.17-18.81-18.21
			c3.02-2.73,7.23-3,11.08-3.28c9.11-0.57,18.26-0.22,27.37,0.27c0.64-3.77-2.06-9.89,2.83-11.51c1.29-0.18,2.59-0.31,3.9-0.38
			c3.02,0.15,6.02,0.56,8.98,1.19c3.7,0.78,7.41,1.54,11.13,2.28c0.49,0.11,1.48,0.31,1.97,0.42c4.83,0.95,9.7,1.7,14.53,2.65
			c-9.63-11.99-16.89-25.75-22.18-40.15C163.16,207.43,160.94,173.88,162.68,141.12z M171.35,147.5c-0.91,0.6-2.47,1.09-2.28,2.48
			c-0.82,18.32-0.54,36.79,2.47,54.93c4.13,26.44,13.92,52.61,31.47,73.14c0.78,1.04,1.94,1.64,3.14,2.11
			c-1.33-2.65-3.53-4.68-5.31-7.01c-5.67-7.3-10.48-15.25-14.42-23.6c-14.35-30.57-17.52-65.11-15.95-98.46
			c-0.13-1.33,1.02-2.08,2.07-2.56c23.63-11.69,47.25-23.39,70.85-35.14c1.19-0.78,2.44,0.28,3.53,0.73
			c23.1,12.01,46.58,23.35,69.59,35.5c1.14,14.6,0.76,29.41-0.73,44c-2.81,27.33-10.71,54.82-27.01,77.27
			c-2.12,3.19-4.99,5.82-6.88,9.16c2.5-0.63,3.84-2.95,5.37-4.79c10.96-13.96,18.64-30.3,23.53-47.32
			c7.17-25.1,8.72-51.49,7.38-77.46c0.35-2.05-1.82-2.65-3.2-3.48c-23.57-11.9-47.1-23.86-70.66-35.77
			C220.07,123.47,195.65,135.37,171.35,147.5z M243.5,154.72c-7.33,7.98-15.05,15.6-22.5,23.47c3.88-0.26,7.92,0.55,11.71-0.38
			c4.08-3.65,7.64-7.87,11.48-11.78c3.42-0.2,6.85-0.11,10.27,0.05C251,162.12,247.35,158.3,243.5,154.72z M208.57,169.69
			c-0.07,11.02,0.1,22.05-0.1,33.07c3.09-2.39,5.5-5.49,8.3-8.19c0.11-5.55-0.21-11.11,0.08-16.65c1.47-3.37,5.03-5.3,7.12-8.29
			C218.84,169.7,213.7,169.68,208.57,169.69z M246.6,169.73c2.76,2.85,5.27,6.07,8.52,8.38c5.3,0.35,10.62-0.21,15.92,0.14
			c3.07,1.74,4.9,5.1,7.77,7.18c-0.13-5.22-0.11-10.44-0.07-15.66C268.03,169.74,257.31,169.81,246.6,169.73z M270.34,182.58
			c0.05,3.83,0.15,7.67-0.04,11.51c3.71,4.61,8.55,8.27,11.97,13.09c0.35,3.34-0.02,6.72,0.03,10.08
			c3.84-3.54,7.14-7.62,10.91-11.23C285.59,198.21,278.18,190.17,270.34,182.58z M228.42,189.77c0.09,8.73,0.33,17.48-0.09,26.21
			c4.73,3.85,9.37,7.84,14.38,11.33c-0.23-9.06,0.26-18.15-0.26-27.2c-2.48,0.69-4.98,1.33-7.49,1.88c0.05,1.58,0.09,3.16,0.15,4.74
			c0.78-0.12,2.34-0.35,3.12-0.46c-0.09,3.88,0,7.76,0.07,11.65c-1.91-1.19-3.68-2.58-5.36-4.07c-0.09-6.7,0.06-13.4-0.08-20.1
			c1.78-0.46,3.56-0.9,5.36-1.33c-0.02,2.26-0.05,4.52-0.07,6.78c1.4-0.5,3.57-0.07,4.45-1.43c0.22-3.63-0.1-7.27,0.14-10.91
			C237.91,187.51,233.17,188.7,228.42,189.77z M244.71,186.7c-0.05,13.58,0.06,27.16-0.05,40.74c4.74-3.92,9.67-7.6,14.41-11.53
			c-0.29-8.74-0.26-17.49-0.06-26.24C254.26,188.6,249.46,187.76,244.71,186.7z M194.05,206.01c7.76,7.59,14.95,15.78,22.8,23.28
			c-0.06-3.95-0.11-7.91-0.08-11.86c-3.82-4.23-8.26-7.93-11.72-12.45c-0.45-3.32-0.02-6.69-0.01-10.02
			C201.12,198.38,197.74,202.35,194.05,206.01z M271.04,216.96c-1,1.09-0.55,2.68-0.68,4.01c0.08,4.64,0.03,9.27,0.09,13.91
			c-2.29,2.53-4.82,4.84-6.98,7.48c5.11-0.09,10.23,0.09,15.34-0.15c-0.17-11.07-0.18-22.14,0.01-33.21
			C276.12,211.54,273.48,214.16,271.04,216.96z M208.44,226.25c0.14,5.33,0.03,10.65,0.14,15.97c10.66,0.17,21.33-0.09,31.99,0.15
			c-2.48-2.88-5.06-5.69-7.86-8.24c-5.51-0.81-11.17-0.11-16.74-0.28C213.38,231.39,211.23,228.5,208.44,226.25z M242.92,246.06
			c-3.35,0.1-6.7,0.04-10.05-0.03c3.37,3.87,7.2,7.31,10.53,11.23c7.89-7.59,15.29-15.69,22.98-23.49
			c-3.78,0.11-7.57-0.15-11.34,0.12C250.57,237.45,247.01,242.06,242.92,246.06z M184.12,289.4c0.57,0.58,1.14,1.16,1.72,1.75
			c-0.8,4.66-1.64,9.31-2.76,13.9c-0.62,0.35-1.24,0.69-1.85,1.04c2.36,0.13,4.69,0.61,6.91,1.42c-0.69-0.78-2.22-1.22-2-2.48
			c0.37-4.38,1.38-8.7,2.29-12.99c1.48-1.1,2.9,0.79,3.54,1.96c0.93,2.73-1.56,4.61-3.21,6.3c3.4-0.04,6.99-3.26,5.67-6.84
			C192.28,289.97,187.54,290.61,184.12,289.4z M299.4,293.94c0.68,3.95,5.31,4.5,7.59,7.15c1.54,2.16-1.63,5.01-3.82,3.81
			c-1-0.85-1.86-1.84-2.74-2.79c0.28,1.36,0.56,2.72,0.83,4.1c3.54,1.22,8.55-0.93,8.18-5.17c-0.45-4.51-5.86-4.86-8.19-7.94
			c0.18-3.85,4.51-3.27,6.29-0.89c-0.62-1.18-0.36-3.88-2.39-3.42C302.33,288.66,298.95,290.81,299.4,293.94z M290.01,291.66
			c2.01,3.02,1.88,6.82,2.69,10.25c0.35,2.41,1.73,5.83-1.54,6.8c-2.98-1.49-5.29-3.99-7.65-6.28c1.83-2.36,3.27-6.24,0.12-8.22
			c-3.12-1.11-6.46,0.2-9.64,0.31c0.58,0.59,1.16,1.18,1.74,1.77c0.54,4.28,1.2,8.54,1.74,12.82c-0.47,0.77-0.92,1.57-1.39,2.34
			c1.92-0.8,3.99-1.03,6.05-1.15c-0.71-0.43-1.41-0.87-2.1-1.3c-0.3-1.73-0.64-3.47-0.64-5.22c4.34-0.97,5.37,5.87,9.74,5.45
			c3.33-0.25,6.44-1.75,9.77-2.09c-0.93-0.26-1.87-0.55-2.79-0.81c-0.26-5.04-3.17-10.3-1.29-15.16
			C293.24,291.47,291.63,291.68,290.01,291.66z M201.25,293.29c-3.87,1.35-6.3,5.61-5.64,9.64c0.47,5.75,7.79,9.31,12.67,6.36
			c3.9-2.16,5.52-7.33,3.95-11.43C210.36,293.95,205.32,291.99,201.25,293.29z M216.02,295.11c0.41,0.42,1.24,1.24,1.66,1.65
			c-0.97,4.93,0.08,10.37-2.47,14.87c1.97,0.11,3.95,0.32,5.87,0.83c-0.99-0.91-2.15-1.89-1.82-3.4c0.15-4.17,0.69-8.31,0.92-12.47
			c2.08-0.14,4.09,1.21,4.21,3.42c0.26,2.36-2.08,3.52-3.45,5.02c3.65,0.06,7.18-3.65,5.44-7.26
			C224.03,294.55,219.44,295.67,216.02,295.11z M228.21,295.6c3.75,3.05,0.89,8.42,1.81,12.52c0.53,5.82,9.74,7.11,12.05,1.82
			c1.34-3.79,0.83-7.94,1.01-11.9c0.57-0.54,1.13-1.08,1.71-1.62c-1.87,0.02-3.74-0.03-5.6-0.15c0.67,0.81,2.16,1.27,1.89,2.58
			c-0.01,3.51,0.18,7.11-0.54,10.56c-1.32,3.52-6.75,3.22-7.64-0.42c-0.3-4.22-0.75-8.74,0.87-12.76
			C231.89,296.22,230.03,296.04,228.21,295.6z M264.69,295.29c-2.19,5.78-2.73,12.21-6.01,17.53c0.89-0.14,2.69-0.42,3.58-0.56
			c-0.35-1.91,0.16-3.78,0.71-5.6c1.66-0.18,3.32-0.36,4.98-0.54c0.78,1.8,1.56,3.61,2.35,5.42c1.56-0.05,3.13-0.08,4.7-0.07
			c-5.2-3.87-6.22-10.92-9.55-16.2C265.26,295.28,264.88,295.29,264.69,295.29z M246.95,296.36c0.57,0.63,1.14,1.27,1.71,1.91
			c-0.23,4.93,0.84,9.97-0.4,14.81c3.3-1.17,9.48,2.04,10.12-2.95c-2.07,1.04-4.33,1.54-6.63,1.11c-0.33-4.45-0.32-8.91-0.51-13.36
			c0.43-0.4,1.28-1.21,1.71-1.61C250.95,296.34,248.95,296.37,246.95,296.36z"/>
	</g>
	<path fill="#173661" d="M249.25,217.81c0.29-8.51-0.25-17.03,0.28-25.52c1.59,0.35,3.18,0.7,4.78,1.04
		c0.24,6.25,0.03,12.5,0.09,18.74C254.51,215.03,251.12,216.14,249.25,217.81z"/>
	<path fill="#173661" d="M201.2,295.03c3.51-2.66,8.56,1.02,8.54,5.05c0.46,3.68-1.13,9.33-5.74,9
		C197.61,308.2,196.75,298.59,201.2,295.03z"/>
	<path fill="#173661" d="M278.14,295.07c2.96-0.81,5.7,1.9,5.03,4.88c-0.16,1.94-2.33,2.22-3.72,2.91
		C278.59,300.35,278.4,297.68,278.14,295.07z"/>
	<path fill="#173661" d="M263.36,305.21c0.5-1.82,0.63-3.86,1.91-5.34c0.7,1.7,1.37,3.43,2.03,5.16
		C266.32,305.08,264.35,305.17,263.36,305.21z"/>
	<g>
		<path fill="#173661" d="M170.4,373.33c0.48-0.96,0.73-2.53,2.17-2.08c1.69,2.85,2.7,6.03,3.91,9.1
			c4.65,12.1,9.25,24.21,14.07,36.25c1.15,2.54,2.26,5.46,4.81,6.91c1.64,0.56,3.4,0.56,5.09,0.87l-0.74,0.95
			c-5.85,0.51-11.78-0.01-17.65,0.02c3.31-2.21,0.37-5.58-0.33-8.3c-1.46-3.14-1.9-6.92-3.95-9.67c-5.13-0.28-10.28,0.01-15.41-0.1
			c-1.71,4.88-4.03,9.62-4.99,14.73c-0.08,2.74,3.35,1.75,5.05,2.28c-0.88,2.56-4.4,0.7-6.44,1.11c-9.58,0.34-19.16-0.35-28.74,0.24
			l-0.07-1.39c1.92-0.38,5.12,0.18,5.24-2.62c0.86-12.52,0.2-25.1,0.42-37.65c-0.19-2.95,0.5-6.17-0.94-8.88
			c-1.6-1.15-4.11-0.54-5.27-2.3c6.45-0.04,12.9,0.27,19.35-0.07c0.34,0.22,1.01,0.67,1.34,0.89c-2.38,0.51-6.03,0.61-5.88,3.96
			c-0.43,11.14-0.06,22.31-0.18,33.46c0.14,3.92-0.38,7.98,0.86,11.78c1.54,1.54,3.98,1.27,5.96,1.08c2.83-0.47,4.01-3.43,5-5.75
			C158.87,403.22,164.6,388.26,170.4,373.33z M170.13,385.52c-2.04,6.14-4.43,12.16-6.48,18.3c4.43-0.11,8.85-0.02,13.27-0.12
			C174.47,397.71,172.92,391.35,170.13,385.52z"/>
	</g>
	<path fill="#173661" d="M75.73,380.82c4.33-5.02,10.69-7.92,17.21-8.74c8.18-1.28,16.32,0.77,24.42,1.7
		c-0.45,4.58-0.74,9.18-0.34,13.79c-3.1-0.32-1.45-4.43-3.36-6.14c-4.57-5.21-12.14-6.63-18.76-6c-6.23,0.36-12.07,4.39-14.41,10.21
		c-2.7,6.73-2.52,14.46-0.29,21.3c2.38,7.66,8.92,13.94,16.87,15.46c3.95,0.52,8.6,1.35,11.99-1.3c-0.36-5.98,0.17-11.98-0.29-17.95
		c-0.68-3.54-5.45-0.94-6.78-3.72c6.79-0.16,13.61,0.26,20.4-0.1c0.19,0.29,0.57,0.87,0.77,1.16c-1.87,0.53-5.03-0.01-5.41,2.59
		c-0.71,6.46,0.14,13-0.38,19.47c-1.8,1.98-4.89,2.3-7.36,3.05c-9.2,1.61-19.16,1.21-27.59-3.13c-6-3.09-10.63-8.76-12.24-15.33
		C67.95,398.16,69.52,387.91,75.73,380.82z"/>
	<path fill="#173661" d="M305.57,374c-0.29-1.06,0.78-4.04,1.96-1.8c12.23,13.53,24.92,26.64,37.4,39.93
		c-0.32-11.01-0.29-22.03-0.73-33.04c-0.12-1.47-0.22-3.11-1.39-4.17c-1.86-0.91-3.99-0.9-5.97-1.34c1.76-1.4,4.08-0.82,6.14-0.8
		c4.1,0.32,8.19-0.06,12.29-0.15l0.01,1.23c-1.76,0.42-4.42,0.05-5.06,2.26c-0.86,3.21-0.51,6.57-0.63,9.85
		c-0.22,13.49-0.19,26.99-0.74,40.47c-1.84-0.28-3.14-1.62-4.36-2.88c-11.76-12.21-23.72-24.22-34.83-37.03
		c0.25,10.16,0.65,20.32,0.85,30.48c0.17,2.18,0.01,4.86,1.82,6.44c1.56,0.75,3.4,0.5,5.08,0.77l-0.09,1.42
		c-6.31-0.39-12.62-0.16-18.93-0.13c0.81-2.51,4.2-0.74,5.65-2.52c0.82-1.87,0.73-3.99,0.86-5.99
		C305.3,402.67,305.16,388.33,305.57,374z"/>
	<g>
		<path fill="#173661" d="M214.22,372.84c5.57-0.39,11.18,0.45,16.77-0.05c9.71-0.08,20.55-0.62,28.76,5.48
			c13.4,10.45,11.74,33.89-2.33,43.02c-7.53,4.7-16.78,5.51-25.43,4.48c-5.48-0.7-11.01-0.3-16.51-0.24
			c-0.27-0.29-0.82-0.86-1.09-1.14c1.56-0.5,3.56-0.05,4.9-1.1c1.33-2.53,1.1-5.52,1.29-8.29c0.09-11.67,0.08-23.34,0.02-35
			c-0.21-1.88,0.05-4.5-2.01-5.41c-1.65-0.48-3.4-0.51-5.09-0.75L214.22,372.84z M229.11,376.91c0.24,13.67-0.27,27.37,0.32,41.03
			c-0.09,3.01,3.24,4.14,5.65,4.61c6.74,0.86,14.39-0.14,19.45-5.09c3.69-3.41,4.75-8.6,5.15-13.39c0.64-6.62-0.52-13.72-4.63-19.1
			C249.12,377.34,238.24,374.6,229.11,376.91z"/>
	</g>
	<path fill="#173661" d="M273.39,373.76c0.86-1.78,3.07-0.85,4.58-1.02c5.04,0.55,10.1-0.18,15.14,0.07l0.86,0.92
		c-1.75,0.7-4.83-0.04-5.5,2.32c-1.05,5.24-0.44,10.64-0.59,15.96c0.14,9.71-0.38,19.45,0.47,29.14c0.09,3.63,4.62,2.64,7.02,3.03
		l-0.07,1.47c-7.16-0.31-14.32-0.41-21.48-0.03l-0.01-1.36c1.58-0.45,3.91,0.2,4.91-1.45c1.13-3.83,0.64-7.9,0.8-11.83
		c-0.1-11.17,0.22-22.36-0.16-33.51C279.41,374.19,275.74,374.08,273.39,373.76z"/>
	<path fill="#173661" d="M359.98,373.8c0.95-1.93,3.38-0.87,5.04-1.07c5.4,0.46,10.8,0.05,16.21-0.07l0.02,1.21
		c-2.02,0.32-5.37,0.25-5.39,3.12c-0.49,5.93-0.13,11.9-0.22,17.84c8.8-0.02,17.59-0.03,26.39,0c-0.08-6.14,0.56-12.38-0.49-18.46
		c-0.76-2.82-4.45-1.95-6.55-2.56c0.85-1.98,3.32-0.86,4.95-1.08c5.29,0.59,10.62-0.21,15.9,0.11l0.72,0.94
		c-1.85,0.58-4.67,0.02-5.57,2.23c-0.86,5.28-0.25,10.68-0.43,16.02c0.17,9.65-0.38,19.33,0.37,28.96c0.39,4.12,5.47,2.68,8.26,3.58
		c-1.98,1.76-4.86,0.78-7.24,0.91c-5.09-0.41-10.19,0.18-15.26,0.01c-0.22-0.27-0.65-0.82-0.87-1.09c2.03-0.48,5.37,0.11,5.56-2.8
		c1.14-7.57,0.58-15.27,0.71-22.89c-8.83-0.07-17.65-0.04-26.47-0.02c0.05,6.42-0.07,12.85,0.11,19.27
		c0.16,1.89,0.01,4.14,1.52,5.57c1.99,0.87,5.07-0.33,6.23,1.91c-7.33,0.22-14.68-0.4-22.01,0.22l-0.18-1.41
		c1.62-0.51,4.51,0.36,4.95-1.94c0.89-3.01,0.61-6.2,0.79-9.29c0.09-10.65,0.07-21.29,0.03-31.94c-0.19-2.01,0.16-4.31-1.13-6.01
		C364.18,373.93,361.92,374.22,359.98,373.8z"/>
	<path fill="#173661" d="M128.08,446.04c2.72-0.11,5.42,0.23,8.13,0.31c-0.52,0.25-1.57,0.74-2.1,0.99
		c0.12,4.44-0.38,8.94,0.29,13.35c0.89,4.29,7.79,4.45,8.84,0.24c0.75-4.62,0.66-9.42,0.04-14.05c-0.61-0.16-1.85-0.46-2.47-0.61
		c2.47-0.08,4.94-0.06,7.41-0.01c-0.55,0.19-1.65,0.57-2.2,0.76c-0.62,4.67,0.45,9.51-0.82,14.09c-1.83,5.4-9.91,6.25-13.01,1.6
		c-2.8-4.9-0.4-10.77-1.81-15.98C129.8,446.56,128.66,446.21,128.08,446.04z"/>
	<path fill="#173661" d="M170.83,445.9c2.04,0.08,4.07,0.22,6.11,0.32c-0.38,0.41-1.15,1.22-1.54,1.62
		c-0.13,5.98-0.18,11.96-0.26,17.95c-5.09-4.46-9.5-9.64-14.13-14.56c0.14,3.59,0.11,7.2,0.27,10.8c-0.27,1.77,1.33,2.64,2.77,3.08
		c-2.38,0.35-4.86,0.56-7.2-0.08c0.52-0.23,1.57-0.7,2.09-0.93c0.68-6.24,0.02-12.57,0.71-18.82c4.63,5.03,9.25,10.08,14.05,14.94
		c-0.47-4.44,0.48-9.1-0.92-13.38C172.3,446.6,171.32,446.13,170.83,445.9z"/>
	<path fill="#173661" d="M202.92,445.86c2.68,0.17,5.36,0.5,8.05,0.3c-0.45,0.36-1.34,1.09-1.78,1.45c1.54,4.34,3.13,8.65,4.7,12.98
		c1.81-4.5,3.54-9.02,5.22-13.57c-0.56-0.16-1.68-0.47-2.25-0.63c2.04-0.1,4.07-0.19,6.1-0.32c-0.79,0.8-1.74,1.5-2.25,2.55
		c-2.83,5.68-4.58,11.87-7.78,17.35c-2.2-5.68-4.36-11.39-6.73-17C205.7,447.42,204.32,446.51,202.92,445.86z"/>
	<g>
		<path fill="#173661" d="M252.99,445.88c4.06,0.82,8.8-0.98,12.37,1.53c2.9,2.7,0.64,6.47-1.43,8.84c1.66,3.83,5.07,6.71,8.29,9.32
			c-2.33-0.08-5.06-0.11-6.6-2.17c-2.26-2.2-3.19-6.52-7.05-6.21c0.41,2.66-1.27,7.41,2.68,7.81c-2.43,0.77-5.03,0.21-7.53,0.29
			c3.06-1.72,1.72-5.52,2-8.34c-0.24-3.36,0.57-6.88-0.54-10.1C254.63,446.61,253.54,446.12,252.99,445.88z M258.51,447.68
			c0.1,2.78,0.12,5.56,0.16,8.35c0.82-0.04,2.47-0.13,3.3-0.17C265.97,453.43,263.4,445.79,258.51,447.68z"/>
	</g>
	<path fill="#173661" d="M340,446.12c2.53,0.43,4.98-0.5,7.49-0.47l-2.04,0.83c1.26,3.1,2.91,6.01,4.57,8.91
		c1.3-2.54,2.64-5.06,4.04-7.55c-0.19-0.44-0.56-1.3-0.74-1.73c1.91,0.08,3.83,0.16,5.75,0.17c-3.72,1.17-4.98,5.13-6.85,8.13
		c-1.98,2.87-1.21,6.49-1.11,9.75c0.75,0.2,2.24,0.61,2.99,0.81c-2.79,0.77-5.73,0.34-8.57,0.19c0.55-0.28,1.66-0.84,2.22-1.12
		c-0.01-2.98,0.76-6.28-0.9-8.97C344.95,451.82,343.35,448.14,340,446.12z"/>
	<path fill="#173661" d="M187.97,446.19c2.39,0.08,4.79,0.06,7.18,0.02c-0.52,0.37-1.55,1.1-2.06,1.46
		c0.38,5.5-0.42,11.08,0.44,16.52c0.66,0.2,1.97,0.61,2.62,0.82c-2.71,0.72-5.56,0.21-8.33,0.31c0.67-0.45,1.35-0.89,2.04-1.32
		c0.36-5.02,0.34-10.06,0.22-15.08C190.37,447.45,188.88,446.89,187.97,446.19z"/>
	<path fill="#173661" d="M230.64,446.31c3.9-0.08,7.8-0.19,11.69-0.41c0.03,1.04,0.06,2.09,0.11,3.14c-1.85-1.32-4.08-1.44-6.27-1.4
		c0.04,2.19,0.05,4.39,0.04,6.59c1.92-0.09,3.85-0.21,5.76-0.39c-0.08,1.33-0.14,2.69-0.19,4.04c-0.93-2.45-3.48-2.19-5.62-2.17
		c0.08,2.47,0.1,4.96,0.04,7.44c2.77,1.34,5.58,0.45,7.31-1.98c-0.4,1.42-0.78,2.84-1.17,4.27c-3.79-0.05-7.59-0.22-11.38-0.03
		c0.7-0.77,2.04-1.17,2.01-2.39c0.31-5.25,0.18-10.54-0.01-15.79C232.38,447,231.22,446.54,230.64,446.31z"/>
	<path fill="#173661" d="M279.58,450.01c0.58-4.15,5.8-5.26,9.12-3.71c0.22,1.26,0.31,2.53,0.26,3.83c-1.19-1.12-1.96-3.29-3.9-3.08
		c-1.83-0.24-3.9,1.78-2.75,3.57c2.2,3.22,7.19,4.84,7.04,9.4c0.12,4.38-5.18,6.94-8.93,5.31c-2.34-0.83-0.98-3.8-0.96-5.59
		c0.93,1.6,1.09,4.48,3.52,4.3c1.95,0.49,4.02-1.08,3.96-3.12C285.51,456.61,279.15,455.16,279.58,450.01z"/>
	<path fill="#173661" d="M299.84,446.22c2.38-0.02,4.77-0.02,7.16-0.06c-0.42,0.43-1.28,1.28-1.7,1.71
		c0.37,5.43-0.61,11.01,0.54,16.33c0.52,0.14,1.54,0.43,2.06,0.57c-0.03,0.17-0.09,0.51-0.12,0.68c-2.47-0.14-4.94-0.15-7.4-0.02
		c0-0.14-0.01-0.44-0.01-0.59c0.4-0.19,1.2-0.57,1.61-0.76c0.68-5.66,0.47-11.46,0.08-17.15
		C301.5,446.75,300.39,446.4,299.84,446.22z"/>
	<path fill="#173661" d="M316.39,449.77c0.43-1.32,0.84-2.65,1.25-3.96c5.22,0.52,10.47,0.47,15.69,0.06
		c0.07,1.37,0.14,2.74,0.21,4.12c-0.54-0.67-1.08-1.34-1.61-2c-1.7-0.13-3.41-0.22-5.11-0.3c0.06,5.5-0.17,11.02,0.29,16.52
		c0.73,0.18,2.19,0.56,2.92,0.75c-2.64,0.74-5.43,0.22-8.12,0.53c0.8-1.03,2.05-1.94,1.84-3.41c0.13-4.77-0.09-9.55,0.13-14.32
		C321.2,447.62,318.26,447.52,316.39,449.77z"/>
</g>
</svg>
