<svg xmlns="http://www.w3.org/2000/svg" viewBox="0 0 210 64" role="img" aria-labelledby="title">
  <title id="title">UNICEF</title>
  <g fill="#00aeef">
    <text x="10" y="42" font-family="Arial, Helvetica, sans-serif" font-size="34" font-weight="400">unicef</text>
    <circle cx="139" cy="31" r="16" fill="none" stroke="#00aeef" stroke-width="2.5"/>
    <path d="M132 31c0-5.1 3.4-9.4 8.1-10.8-1 2.1-1.6 5.7-1.6 10.8s.6 8.7 1.6 10.8A11.3 11.3 0 0 1 132 31Zm21.5 0c0 5.1-3.4 9.4-8.1 10.8 1-2.1 1.6-5.7 1.6-10.8s-.6-8.7-1.6-10.8c4.7 1.4 8.1 5.7 8.1 10.8Z"/>
    <path d="M128 48c5.8 2.6 15.4 2.6 21.2 0-4.7 5.3-16.5 5.3-21.2 0Zm0-34c5.8-2.6 15.4-2.6 21.2 0-4.7-5.3-16.5-5.3-21.2 0Z"/>
    <path d="M158 23c5 1.2 9 4.6 11 9-5-1.4-8.9-4.6-11-9Zm0 18c5-1.2 9-4.6 11-9-5 1.4-8.9 4.6-11 9Z"/>
  </g>
</svg>
