<svg xmlns="http://www.w3.org/2000/svg" viewBox="0 0 160 64" role="img" aria-labelledby="title">
  <title id="title">OpenAI</title>
  <g fill="none" stroke="#111827" stroke-width="5" stroke-linecap="round" stroke-linejoin="round">
    <path d="M34 10a17 17 0 0 1 17 17v12"/>
    <path d="M51 25 35 16a17 17 0 0 0-24 8"/>
    <path d="M18 23a17 17 0 0 0 6 23l11 7"/>
    <path d="M25 45a17 17 0 0 0 25-4l7-11"/>
    <path d="M51 40a17 17 0 0 0-8-24l-11-6"/>
    <path d="M33 17 18 27a17 17 0 0 0 0 20"/>
  </g>
  <text x="74" y="42" fill="#111827" font-family="Arial, Helvetica, sans-serif" font-size="25" font-weight="700">OpenAI</text>
</svg>
